<?xml version="1.0" standalone="no"?>
<!DOCTYPE svg PUBLIC "-//W3C//DTD SVG 20010904//EN"
 "http://www.w3.org/TR/2001/REC-SVG-20010904/DTD/svg10.dtd">
<svg version="1.0" xmlns="http://www.w3.org/2000/svg"
 width="160.000000pt" height="160.000000pt" viewBox="0 0 160.000000 160.000000"
 preserveAspectRatio="xMidYMid meet">
<metadata>
Created by potrace 1.11, written by Peter Selinger 2001-2013
</metadata>
<g transform="translate(0.000000,160.000000) scale(0.100000,-0.100000)"
fill="#000000" stroke="none">
<path d="M665 1589 c-349 -69 -597 -323 -656 -673 -40 -234 51 -505 226 -681
154 -154 340 -230 565 -230 225 0 411 76 565 230 154 154 230 340 230 565 0
174 -36 297 -125 433 -112 173 -271 287 -480 344 -68 18 -258 25 -325 12z
m415 -649 l0 -140 -280 0 -280 0 0 140 0 140 280 0 280 0 0 -140z m-360 -340
l0 -120 -100 0 -100 0 0 120 0 120 100 0 100 0 0 -120z m360 80 l0 -40 -140 0
-140 0 0 40 0 40 140 0 140 0 0 -40z m0 -160 l0 -40 -140 0 -140 0 0 40 0 40
140 0 140 0 0 -40z"/>
</g>
</svg>
